<svg xmlns="http://www.w3.org/2000/svg" width="183" height="36" viewBox="0 0 183 36" fill="none">
  <path d="M64.7996 8.9406H61.3962C60.9289 7.94064 60.0638 7.40778 58.9115 7.40778C56.932 7.40778 55.6186 9.06559 55.6186 11.6642C55.6186 14.4305 56.9509 16.0456 59.1641 16.0456C60.6953 16.0456 61.7561 15.0884 62.2233 13.4075H58.3179V10.7267H65.0143V14.1081C64.367 16.6837 62.2612 19.2559 58.9304 19.2559C55.1513 19.2559 52.4867 16.1278 52.4867 11.6609C52.4867 7.19397 55.1324 4.04279 58.9146 4.04279C61.9392 4.04279 64.1366 5.87166 64.7996 8.93731V8.9406Z" fill="#313B96"/>
  <path d="M72.6134 19.1539H66.7285V4.21707H72.4177C74.9908 4.21707 76.522 5.72687 76.522 8.08861C76.522 9.89775 75.6033 11.0655 74.3783 11.4931C75.8558 11.8549 76.8093 13.3877 76.8093 15.0883C76.8093 17.5553 75.2781 19.1506 72.6134 19.1506V19.1539ZM71.821 7.13142H69.8036V10.2596H71.821C72.8281 10.2596 73.3869 9.7267 73.3869 8.70701C73.3869 7.68732 72.8281 7.13142 71.821 7.13142ZM72.0357 12.9206H69.8036V16.2198H72.0704C73.0965 16.2198 73.69 15.6672 73.69 14.6015C73.69 13.5358 73.0586 12.9206 72.0325 12.9206H72.0357Z" fill="#313B96"/>
  <path d="M78.5331 4.21707H81.6113V13.1542C81.6113 14.9206 82.3501 15.9402 83.8087 15.9402C85.2673 15.9402 86.0408 14.9206 86.0408 13.1542V4.21707H89.119V13.1312C89.119 17.2593 86.6722 19.3019 83.755 19.3019C80.8378 19.3019 78.5331 17.2593 78.5331 13.1312V4.21707Z" fill="#313B96"/>
  <path d="M95.85 19.302C93.1317 19.302 91.007 17.7067 90.9186 14.6838H94.1957C94.2873 15.8317 94.8966 16.3843 95.7616 16.3843C96.6267 16.3843 97.2392 15.8515 97.2392 14.9798C97.2392 12.2135 90.9217 13.7035 90.9565 8.40442C90.9565 5.5756 92.9202 4 95.5659 4C98.2116 4 100.175 5.61836 100.302 8.46692H96.9708C96.9172 7.50972 96.3394 6.93409 95.5122 6.91435C94.7735 6.89462 94.2146 7.33867 94.2146 8.27613C94.2146 10.8714 100.463 9.70041 100.463 14.7002C100.463 17.21 98.8051 19.2954 95.8532 19.2954L95.85 19.302Z" fill="#313B96"/>
  <path d="M102.348 4.21707H105.426V19.1539H102.348V4.21707Z" fill="#313B96"/>
  <path d="M118.964 4.21707V19.1539H115.885L110.736 9.94051V19.1539H107.658V4.21707H110.736L115.885 13.4732V4.21707H118.964Z" fill="#313B96"/>
  <path d="M128.937 7.13142H124.274V10.1543H128.397V12.9634H124.274V16.2396H128.937V19.1539H121.196V4.21707H128.937V7.13142Z" fill="#313B96"/>
  <path d="M135.507 19.302C132.789 19.302 130.664 17.7067 130.576 14.6838H133.853C133.941 15.8317 134.554 16.3843 135.419 16.3843C136.284 16.3843 136.896 15.8515 136.896 14.9798C136.896 12.2135 130.579 13.7035 130.613 8.40442C130.613 5.5756 132.574 4 135.223 4C137.872 4 139.832 5.61836 139.959 8.46692H136.628C136.574 7.50972 135.996 6.93409 135.169 6.91435C134.43 6.89462 133.872 7.33867 133.872 8.27613C133.872 10.8714 140.12 9.70041 140.12 14.7002C140.12 17.21 138.462 19.2954 135.51 19.2954L135.507 19.302Z" fill="#313B96"/>
  <path d="M146.576 19.302C143.858 19.302 141.733 17.7067 141.645 14.6838H144.922C145.013 15.8317 145.623 16.3843 146.488 16.3843C147.353 16.3843 147.965 15.8515 147.965 14.9798C147.965 12.2135 141.648 13.7035 141.682 8.40442C141.682 5.5756 143.643 4 146.292 4C148.941 4 150.901 5.61836 151.028 8.46692H147.697C147.643 7.50972 147.065 6.93409 146.238 6.91435C145.499 6.89462 144.941 7.33867 144.941 8.27613C144.941 10.8714 151.189 9.70041 151.189 14.7002C151.189 17.21 149.531 19.2954 146.579 19.2954L146.576 19.302Z" fill="#313B96"/>
  <path d="M154.513 19.325C153.414 19.325 152.676 18.4533 152.676 17.3678C152.676 16.2824 153.414 15.3679 154.513 15.3679C155.612 15.3679 156.332 16.2396 156.332 17.3678C156.332 18.4961 155.593 19.325 154.513 19.325Z" fill="#313B96"/>
  <path d="M166.018 16.5159H161.301L160.546 19.1539H157.323L161.894 4.21707H165.459L170.03 19.1539H166.772L166.015 16.5159H166.018ZM163.659 8.23993L162.112 13.7068H165.228L163.662 8.23993H163.659Z" fill="#313B96"/>
  <path d="M171.416 4.21707H174.495V19.1539H171.416V4.21707Z" fill="#313B96"/>
  <path d="M57.0109 26.1471H56.2753C56.0195 25.4991 55.5049 25.1241 54.8451 25.1241C53.8537 25.1241 53.1118 25.9694 53.1118 27.3115C53.1118 28.6535 53.8537 29.489 54.8451 29.489C55.7701 29.489 56.4047 28.7884 56.4994 27.6865H54.6241V27.0944H57.1561V27.6536C57.0488 29.0351 56.1237 30.1436 54.8482 30.1436C53.5728 30.1436 52.4867 28.9792 52.4867 27.3115C52.4867 25.6438 53.5254 24.4695 54.8482 24.4695C55.8396 24.4695 56.6636 25.0747 57.014 26.1438L57.0109 26.1471Z" fill="#F47C24"/>
  <path d="M57.9644 24.1932H58.58V30.0975H57.9644V24.1932Z" fill="#F47C24"/>
  <path d="M61.2383 30.17C60.1933 30.17 59.3945 29.2917 59.3945 27.9036C59.3945 26.5155 60.2185 25.6537 61.2636 25.6537C62.3086 25.6537 63.1326 26.5221 63.1326 27.9036C63.1326 29.2851 62.2896 30.17 61.2351 30.17H61.2383ZM61.2383 29.5318C61.8792 29.5318 62.5075 29.0121 62.5075 27.9036C62.5075 26.7951 61.8918 26.2853 61.2604 26.2853C60.629 26.2853 60.026 26.805 60.026 27.9036C60.026 29.0023 60.6006 29.5318 61.2415 29.5318H61.2383Z" fill="#F47C24"/>
  <path d="M65.9424 25.6536C66.9401 25.6536 67.6978 26.5319 67.6978 27.897C67.6978 29.262 66.9338 30.1699 65.9424 30.1699C65.2668 30.1699 64.7869 29.7719 64.5596 29.2916V30.0975H63.944V24.1932H64.5596V26.5385C64.7964 26.0516 65.2889 25.6536 65.9424 25.6536ZM65.8162 26.2852C65.1468 26.2852 64.5596 26.8904 64.5596 27.9035C64.5596 28.9167 65.1468 29.5318 65.8162 29.5318C66.4855 29.5318 67.0727 28.9265 67.0727 27.897C67.0727 26.8674 66.4981 26.2852 65.8162 26.2852Z" fill="#F47C24"/>
  <path d="M70.0342 25.6537C70.7224 25.6537 71.196 26.0682 71.4107 26.5221V25.7228H72.0327V30.0976H71.4107V29.2851C71.1865 29.7555 70.7098 30.17 70.0279 30.17C69.0428 30.17 68.2788 29.2522 68.2788 27.897C68.2788 26.5418 69.0428 25.6537 70.0342 25.6537ZM70.1542 26.2853C69.4785 26.2853 68.9071 26.8675 68.9071 27.897C68.9071 28.9266 69.4817 29.5318 70.1542 29.5318C70.8266 29.5318 71.4107 28.9332 71.4107 27.9036C71.4107 26.8741 70.8298 26.2853 70.1542 26.2853Z" fill="#F47C24"/>
  <path d="M73.0713 24.1932H73.6869V30.0975H73.0713V24.1932Z" fill="#F47C24"/>
  <path d="M78.29 30.0975H76.5347V24.5353H78.2206C79.2119 24.5353 79.7108 25.1734 79.7108 25.9464C79.7108 26.647 79.3382 27.0549 78.8867 27.2325C79.3982 27.3378 79.8181 27.92 79.8181 28.6042C79.8181 29.443 79.2593 30.0975 78.2869 30.0975H78.29ZM78.1669 25.1339H77.1472V26.9365H78.1795C78.7541 26.9365 79.0825 26.601 79.0825 26.0352C79.0825 25.4694 78.7668 25.1339 78.1638 25.1339H78.1669ZM78.2143 27.5351H77.1472V29.4989H78.2332C78.8394 29.4989 79.2056 29.1403 79.2056 28.5351C79.2056 27.9299 78.8141 27.5384 78.2143 27.5384V27.5351Z" fill="#F47C24"/>
  <path d="M83.9509 30.0975H83.3352V29.4495C83.0984 29.9035 82.647 30.16 82.1545 30.16C81.3052 30.16 80.6359 29.5383 80.6359 28.2851V25.7227H81.242V28.1897C81.242 29.0745 81.6525 29.5318 82.2744 29.5318C82.8964 29.5318 83.3352 29.068 83.3352 28.1272V25.726H83.9509V30.1008V30.0975Z" fill="#F47C24"/>
  <path d="M86.3029 30.17C85.4379 30.17 84.8317 29.6108 84.7906 28.8148H85.4252C85.46 29.2391 85.7757 29.5582 86.2966 29.5582C86.7828 29.5582 87.0512 29.272 87.0512 28.9102C87.0512 27.9365 84.8633 28.5023 84.8633 26.8741C84.8633 26.203 85.3968 25.6537 86.2208 25.6537C87.0449 25.6537 87.5784 26.1734 87.6195 27.0254H87.0038C86.9754 26.5879 86.6944 26.2688 86.2019 26.2688C85.7504 26.2688 85.4789 26.5254 85.4789 26.8741C85.4789 27.9102 87.6258 27.3444 87.651 28.9102C87.651 29.6272 87.1175 30.17 86.2998 30.17H86.3029Z" fill="#F47C24"/>
  <path d="M88.415 24.5189C88.415 24.2393 88.5982 24.0255 88.8349 24.0255C89.0591 24.0255 89.2391 24.2425 89.2391 24.5189C89.2391 24.7952 89.0559 25.0123 88.8349 25.0123C88.5982 25.0123 88.415 24.7984 88.415 24.5189ZM88.5161 25.726H89.1317V30.1008H88.5161V25.726Z" fill="#F47C24"/>
  <path d="M92.8823 27.624C92.8823 26.7293 92.4719 26.2753 91.8499 26.2753C91.228 26.2753 90.7891 26.7391 90.7891 27.6799V30.0975H90.1735V25.7227H90.7891V26.3444C91.0322 25.8905 91.4774 25.6438 91.9762 25.6438C92.8318 25.6438 93.4885 26.2655 93.4885 27.5187V30.0975H92.8823V27.624Z" fill="#F47C24"/>
  <path d="M96.0962 30.17C95.0448 30.17 94.2682 29.2917 94.2682 27.9036C94.2682 26.5155 95.0164 25.6537 96.0962 25.6537C97.1759 25.6537 97.8705 26.5484 97.8705 27.7457C97.8705 27.9069 97.8642 28.0319 97.8515 28.1832H94.8965C94.9438 29.068 95.4711 29.5549 96.0993 29.5549C96.6518 29.5549 97.0023 29.2193 97.138 28.749H97.7979C97.6084 29.5483 97.0149 30.17 96.0962 30.17ZM94.8996 27.5911H97.2359C97.2422 26.7359 96.7023 26.2655 96.0678 26.2655C95.4679 26.2655 94.9691 26.7359 94.8996 27.5911Z" fill="#F47C24"/>
  <path d="M99.9923 30.17C99.1272 30.17 98.521 29.6108 98.48 28.8148H99.1146C99.1493 29.2391 99.465 29.5582 99.9859 29.5582C100.472 29.5582 100.74 29.272 100.74 28.9102C100.74 27.9365 98.5526 28.5023 98.5526 26.8741C98.5526 26.203 99.0862 25.6537 99.9102 25.6537C100.734 25.6537 101.268 26.1734 101.309 27.0254H100.693C100.665 26.5879 100.384 26.2688 99.8912 26.2688C99.4398 26.2688 99.1682 26.5254 99.1682 26.8741C99.1682 27.9102 101.315 27.3444 101.34 28.9102C101.34 29.6272 100.807 30.17 99.9891 30.17H99.9923Z" fill="#F47C24"/>
  <path d="M103.516 30.17C102.651 30.17 102.044 29.6108 102.003 28.8148H102.638C102.673 29.2391 102.988 29.5582 103.509 29.5582C103.995 29.5582 104.264 29.272 104.264 28.9102C104.264 27.9365 102.076 28.5023 102.076 26.8741C102.076 26.203 102.609 25.6537 103.433 25.6537C104.257 25.6537 104.791 26.1734 104.832 27.0254H104.216C104.188 26.5879 103.907 26.2688 103.415 26.2688C102.963 26.2688 102.692 26.5254 102.692 26.8741C102.692 27.9102 104.838 27.3444 104.864 28.9102C104.864 29.6272 104.33 30.17 103.512 30.17H103.516Z" fill="#F47C24"/>
  <path d="M109.022 30.1535C108.078 30.1535 107.408 29.5318 107.396 28.6141H108.049C108.09 29.0779 108.365 29.5384 109.022 29.5384C109.615 29.5384 109.966 29.1404 109.966 28.6141C109.966 27.1141 107.421 28.0713 107.421 26.0056C107.421 25.0879 108.049 24.4662 108.981 24.4662C109.912 24.4662 110.465 25.0484 110.54 25.8938H109.865C109.824 25.5188 109.527 25.0945 108.952 25.0879C108.447 25.0715 108.049 25.3839 108.049 25.9826C108.049 27.42 110.588 26.5253 110.588 28.5845C110.588 29.3739 110.041 30.1568 109.022 30.1568V30.1535Z" fill="#F47C24"/>
  <path d="M113.107 30.17C112.062 30.17 111.263 29.2917 111.263 27.9036C111.263 26.5155 112.087 25.6537 113.132 25.6537C114.177 25.6537 115.001 26.5221 115.001 27.9036C115.001 29.2851 114.158 30.17 113.104 30.17H113.107ZM113.107 29.5318C113.748 29.5318 114.376 29.0121 114.376 27.9036C114.376 26.7951 113.76 26.2853 113.129 26.2853C112.498 26.2853 111.895 26.805 111.895 27.9036C111.895 29.0023 112.469 29.5318 113.11 29.5318H113.107Z" fill="#F47C24"/>
  <path d="M115.813 24.1932H116.429V30.0975H115.813V24.1932Z" fill="#F47C24"/>
  <path d="M120.754 30.0975H120.138V29.4495C119.901 29.9035 119.45 30.16 118.957 30.16C118.108 30.16 117.439 29.5383 117.439 28.2851V25.7227H118.045V28.1897C118.045 29.0745 118.455 29.5318 119.077 29.5318C119.699 29.5318 120.138 29.068 120.138 28.1272V25.726H120.754V30.1008V30.0975Z" fill="#F47C24"/>
  <path d="M121.928 26.3247H121.448V25.7261H121.928V24.6241H122.544V25.7261H123.51V26.3247H122.544V28.9036C122.544 29.3345 122.68 29.4858 123.055 29.4858H123.507V30.1009H122.954C122.301 30.1009 121.928 29.7818 121.928 28.9036V26.3247Z" fill="#F47C24"/>
  <path d="M124.151 24.5189C124.151 24.2393 124.334 24.0255 124.568 24.0255C124.792 24.0255 124.972 24.2425 124.972 24.5189C124.972 24.7952 124.789 25.0123 124.568 25.0123C124.331 25.0123 124.151 24.7984 124.151 24.5189ZM124.252 25.726H124.868V30.1008H124.252V25.726Z" fill="#F47C24"/>
  <path d="M127.526 30.17C126.481 30.17 125.682 29.2917 125.682 27.9036C125.682 26.5155 126.506 25.6537 127.551 25.6537C128.596 25.6537 129.42 26.5221 129.42 27.9036C129.42 29.2851 128.577 30.17 127.523 30.17H127.526ZM127.526 29.5318C128.167 29.5318 128.795 29.0121 128.795 27.9036C128.795 26.7951 128.179 26.2853 127.548 26.2853C126.916 26.2853 126.313 26.805 126.313 27.9036C126.313 29.0023 126.888 29.5318 127.529 29.5318H127.526Z" fill="#F47C24"/>
  <path d="M132.937 27.624C132.937 26.7293 132.527 26.2753 131.905 26.2753C131.283 26.2753 130.844 26.7391 130.844 27.6799V30.0975H130.228V25.7227H130.844V26.3444C131.087 25.8905 131.532 25.6438 132.031 25.6438C132.887 25.6438 133.543 26.2655 133.543 27.5187V30.0975H132.937V27.624Z" fill="#F47C24"/>
  <path d="M135.861 30.17C134.996 30.17 134.389 29.6108 134.348 28.8148H134.983C135.018 29.2391 135.333 29.5582 135.854 29.5582C136.341 29.5582 136.609 29.272 136.609 28.9102C136.609 27.9365 134.421 28.5023 134.421 26.8741C134.421 26.203 134.955 25.6537 135.779 25.6537C136.603 25.6537 137.136 26.1734 137.174 27.0254H136.558C136.533 26.5879 136.249 26.2688 135.756 26.2688C135.305 26.2688 135.033 26.5254 135.033 26.8741C135.033 27.9102 137.18 27.3444 137.206 28.9102C137.206 29.6272 136.672 30.17 135.858 30.17H135.861Z" fill="#F47C24"/>
  <path d="M139.438 25.726H140.066L140.915 29.3969L141.834 25.726H142.462L143.359 29.4035L144.196 25.726H144.802L143.646 30.1009H143.012L142.121 26.6306L141.231 30.1009H140.596L139.435 25.726H139.438Z" fill="#F47C24"/>
  <path d="M145.313 24.5189C145.313 24.2393 145.496 24.0255 145.73 24.0255C145.954 24.0255 146.134 24.2425 146.134 24.5189C146.134 24.7952 145.951 25.0123 145.73 25.0123C145.493 25.0123 145.313 24.7984 145.313 24.5189ZM145.414 25.726H146.03V30.1008H145.414V25.726Z" fill="#F47C24"/>
  <path d="M147.207 26.3247H146.728V25.7261H147.207V24.6241H147.823V25.7261H148.789V26.3247H147.823V28.9036C147.823 29.3345 147.959 29.4858 148.338 29.4858H148.789V30.1009H148.237C147.583 30.1009 147.211 29.7818 147.211 28.9036V26.3247H147.207Z" fill="#F47C24"/>
  <path d="M149.531 24.1932H150.147V26.3543C150.39 25.8905 150.848 25.6438 151.369 25.6438C152.193 25.6438 152.846 26.2655 152.846 27.5187V30.0975H152.24V27.6239C152.24 26.7292 151.83 26.2753 151.208 26.2753C150.586 26.2753 150.147 26.7391 150.147 27.6799V30.0975H149.531V24.1932Z" fill="#F47C24"/>
  <path d="M158.434 28.8608H156.382L156.003 30.0976H155.356L157.058 24.5682H157.765L159.46 30.0976H158.813L158.434 28.8608ZM157.408 25.4629L156.559 28.272H158.261L157.411 25.4629H157.408Z" fill="#F47C24"/>
  <path d="M160.202 24.5353H160.818V30.0975H160.202V24.5353Z" fill="#F47C24"/>
  <path d="M166.447 28.8608H164.395L164.016 30.0976H163.369L165.071 24.5682H165.778L167.473 30.0976H166.826L166.447 28.8608ZM165.421 25.4629L164.572 28.272H166.273L165.424 25.4629H165.421Z" fill="#F47C24"/>
  <path d="M169.74 25.6537C170.416 25.6537 170.902 26.0517 171.117 26.5221V25.7228H171.739V30.193C171.739 31.3969 171.057 32.2521 169.971 32.2521C168.998 32.2521 168.304 31.6699 168.184 30.7357H168.79C168.926 31.262 169.364 31.6206 169.971 31.6206C170.624 31.6206 171.117 31.1272 171.117 30.193V29.2753C170.892 29.7456 170.416 30.17 169.74 30.17C168.749 30.17 167.985 29.2522 167.985 27.897C167.985 26.5418 168.749 25.6537 169.74 25.6537ZM169.86 26.2853C169.184 26.2853 168.613 26.8675 168.613 27.897C168.613 28.9266 169.188 29.5318 169.86 29.5318C170.533 29.5318 171.117 28.9332 171.117 27.9036C171.117 26.8741 170.536 26.2853 169.86 26.2853Z" fill="#F47C24"/>
  <path d="M174.378 30.17C173.326 30.17 172.55 29.2917 172.55 27.9036C172.55 26.5155 173.298 25.6537 174.378 25.6537C175.458 25.6537 176.152 26.5484 176.152 27.7457C176.152 27.9069 176.146 28.0319 176.133 28.1832H173.178C173.225 29.068 173.753 29.5549 174.381 29.5549C174.933 29.5549 175.284 29.2193 175.42 28.749H176.08C175.89 29.5483 175.297 30.17 174.378 30.17ZM173.184 27.5911H175.521C175.527 26.7359 174.987 26.2655 174.353 26.2655C173.753 26.2655 173.254 26.7359 173.184 27.5911Z" fill="#F47C24"/>
  <path d="M179.669 27.624C179.669 26.7293 179.259 26.2753 178.637 26.2753C178.015 26.2753 177.576 26.7391 177.576 27.6799V30.0975H176.96V25.7227H177.576V26.3444C177.819 25.8905 178.264 25.6438 178.763 25.6438C179.619 25.6438 180.275 26.2655 180.275 27.5187V30.0975H179.669V27.624Z" fill="#F47C24"/>
  <path d="M181.418 26.3247H180.938V25.7261H181.418V24.6241H182.034V25.7261H183V26.3247H182.034V28.9036C182.034 29.3345 182.17 29.4858 182.545 29.4858H182.997V30.1009H182.444C181.791 30.1009 181.418 29.7818 181.418 28.9036V26.3247Z" fill="#F47C24"/>
  <path d="M25.4955 8.69101C23.9869 7.59661 22.1952 6.89837 20.1205 6.61951C13.6255 5.74753 8.08401 10.1705 7.04943 16.0043C5.93048 22.3085 10.2198 28.3116 16.6249 29.312C21.0818 30.008 24.7994 28.5584 27.7134 25.1568C27.76 25.1026 27.8011 25.0439 27.841 24.9842C27.851 24.9698 27.8466 24.9465 27.8555 24.879H27.4969C25.4255 24.879 23.3541 24.8746 21.2827 24.8846C21.0308 24.8846 20.9453 24.8248 20.9464 24.5637C20.9575 22.6493 20.9564 20.7349 20.9464 18.8206C20.9453 18.5627 21.0263 18.4842 21.2816 18.4986C21.6224 18.5185 21.9654 18.503 22.3073 18.503C27.6412 18.4997 32.9762 18.4963 38.3101 18.493C38.5943 18.493 38.7364 18.6269 38.7364 18.8947C38.7319 24.4751 38.7253 30.0545 38.7275 35.6349C38.7275 35.8928 38.6753 35.9835 38.39 35.9813C36.453 35.968 34.5159 35.9691 32.5788 35.9813C32.3002 35.9824 32.2325 35.8994 32.2347 35.6349C32.2458 33.8832 32.2414 32.1315 32.2391 30.3809C32.2391 30.2736 32.2691 30.1596 32.2003 30.0401C32.0593 30.081 31.9949 30.205 31.9083 30.2957C29.101 33.2403 25.672 35.1115 21.6269 35.7223C15.0397 36.7171 9.42054 34.7795 4.89812 29.9494C2.49592 27.3832 1.05172 24.3202 0.496688 20.881C-1.00524 11.5592 4.88812 2.96451 13.8608 0.611936C15.8978 0.077462 17.9714 -0.117295 20.0694 0.0686094C24.3854 0.450377 28.1374 2.09142 31.2634 5.04929" fill="#313B96"/>
  <path d="M26.3813 14.9133L32.4967 17.9265L38.611 14.9133L32.4967 11.92L26.3813 14.9133Z" fill="#313B96"/>
  <path d="M32.4967 17.3986L27.6624 15.0162L32.4967 6.13705V17.3986Z" fill="#FEBF10"/>
  <path d="M32.4967 17.3986L37.3299 15.0162L32.4967 6.13705V17.3986Z" fill="#F47C24"/>
</svg>